<?xml version="1.0" encoding="UTF-8"?>
<!DOCTYPE svg PUBLIC "-//W3C//DTD SVG 1.1//EN" "http://www.w3.org/Graphics/SVG/1.1/DTD/svg11.dtd">
<svg xmlns="http://www.w3.org/2000/svg" version="1.1" width="24px" height="24px" style="shape-rendering:geometricPrecision; text-rendering:geometricPrecision; image-rendering:optimizeQuality; fill-rule:evenodd; clip-rule:evenodd" xmlns:xlink="http://www.w3.org/1999/xlink">
<g><path style="opacity:0.848" fill="#f04435" d="M 8.5,-0.5 C 10.5,-0.5 12.5,-0.5 14.5,-0.5C 16.3779,0.207597 18.0445,1.37426 19.5,3C 16.5775,6.21695 12.9109,7.21695 8.5,6C 7.2899,7.0391 6.2899,8.20577 5.5,9.5C 4.07797,8.07501 2.4113,7.07501 0.5,6.5C 2.59841,3.39407 5.26507,1.06073 8.5,-0.5 Z"/></g>
<g><path style="opacity:0.89" fill="#fab900" d="M 0.5,6.5 C 2.4113,7.07501 4.07797,8.07501 5.5,9.5C 5.5,10.8333 5.5,12.1667 5.5,13.5C 3.83333,14.5 2.5,15.8333 1.5,17.5C 0.833333,16.5 0.166667,15.5 -0.5,14.5C -0.5,12.5 -0.5,10.5 -0.5,8.5C 0.338246,8.15829 0.67158,7.49162 0.5,6.5 Z"/></g>
<g><path style="opacity:0.874" fill="#508df7" d="M 23.5,9.5 C 23.5,11.1667 23.5,12.8333 23.5,14.5C 22.6153,17.06 20.9486,19.06 18.5,20.5C 17.5637,19.0256 16.2303,18.0256 14.5,17.5C 14.9528,16.5416 15.6195,15.7083 16.5,15C 14.8659,14.5065 13.1992,14.3398 11.5,14.5C 11.5,12.5 11.5,10.5 11.5,8.5C 15.6002,8.23674 19.6002,8.57007 23.5,9.5 Z"/></g>
<g><path style="opacity:0.877" fill="#2eb347" d="M 5.5,13.5 C 7.42512,17.0076 10.4251,18.341 14.5,17.5C 16.2303,18.0256 17.5637,19.0256 18.5,20.5C 17.4097,21.8571 16.0764,22.8571 14.5,23.5C 12.5,23.5 10.5,23.5 8.5,23.5C 5.60184,22.2766 3.26851,20.2766 1.5,17.5C 2.5,15.8333 3.83333,14.5 5.5,13.5 Z"/></g>
</svg>
